<svg width="634" height="561" viewBox="0 0 634 561" fill="none" xmlns="http://www.w3.org/2000/svg">
<path d="M442 0C453.18 44.8577 463.267 140.822 491 187.5L424 173.5C443.769 133.508 443.573 40.9912 442 0Z" fill="#8C93FF"/>
<path d="M491 35C502.18 79.8577 512.267 175.822 540 222.5L473 208.5C492.769 168.508 492.573 75.9912 491 35Z" fill="#8C93FF"/>
<path d="M534 76C545.18 120.858 555.267 216.822 583 263.5L516 249.5C535.769 209.508 535.573 116.991 534 76Z" fill="#8C93FF"/>
<path d="M576.5 128.5C587.68 173.358 590.267 247.822 618 294.5L565.5 225C576.5 187.5 578.073 169.491 576.5 128.5Z" fill="#8C93FF"/>
<path d="M424 173.2C539.621 173.2 633.349 259.855 633.35 366.75C633.35 473.645 539.621 560.3 424 560.3V173.2ZM503 264.05C487.729 264.05 475.35 276.43 475.35 291.7C475.35 306.971 487.729 319.351 503 319.351C518.271 319.351 530.65 306.971 530.65 291.7C530.65 276.43 518.271 264.05 503 264.05Z" fill="#8C93FF"/>
<path d="M241.404 534.121V182.032C347.396 182.032 433.32 260.85 433.32 358.077C433.32 455.303 347.396 534.121 241.404 534.121Z" fill="#8C93FF"/>
<path d="M101.39 489.212V225.145C180.884 225.145 245.327 284.258 245.327 357.178C245.327 430.098 180.884 489.212 101.39 489.212Z" fill="#8C93FF"/>
<path d="M0 456.727V258.677C59.6207 258.677 107.953 303.012 107.953 357.702C107.953 412.392 59.6207 456.727 0 456.727Z" fill="#8C93FF"/>
</svg>
